<?xml version="1.0" encoding="utf-8"?>
<?xml-stylesheet type="text/xsl" href="rss1.xsl"?>
<rss version="2.0" xmlns:atom="http://www.w3.org/2005/Atom" xmlns:content="http://purl.org/rss/1.0/modules/content/" xmlns:dc="http://purl.org/dc/elements/1.1/" xmlns:media="http://search.yahoo.com/mrss/">
<channel>
 <title>Getty</title>
 <link>http://www.gettyimg.com/</link>
 <atom:link href="http://www.gettyimg.com/" rel="self" type="application/rss+xml" />

 
                <item>
                <title><![CDATA[【Singles (lossless)】FLAC - ARTMS - «Flower Rhythm» [FLAC 24Bit/96kHz]]]></title>
                <link><![CDATA[https://sharemania.us/threads/artms-%C2%ABflower-rhythm%C2%BB-flac-24bit-96khz.241883/]]></link>
                <description><![CDATA[<article>
<blockquote class="messageText SelectQuoteContainer ugc baseHtml">
<div style="text-align: center"><img src="https://i.imgur.com/w2WUgsa.jpg" class="bbCodeImage LbImage" alt="[​IMG]" data-url="https://i.imgur.com/w2WUgsa.jpg" style=""> <br>
<br>
<span data-s9e-mediaembed="youtube" style="display:inline-block;width:100%;max-width:640px"><span style="display:block;overflow:hidden;position:relative;padding-bottom:56.25%"><iframe allowfullscreen="" loading="lazy" scrolling="no" style="background:url(https://i.ytimg.com/vi/cCFKbHwOYEA/hqdefault.jpg) 50% 50% / cover;border:0;height:100%;left:0;position:absolute;width:100%" src="https://www.youtube.com/embed/cCFKbHwOYEA"></iframe></span></span><br>
<br>
<span data-s9e-mediaembed="spotify" style="display:inline-block;width:100%;max-width:320px"><span style="display:block;overflow:hidden;position:relative;padding-bottom:125%;padding-bottom:calc(100% + 80px)"><iframe allow="encrypted-media" allowfullscreen="" loading="lazy" scrolling="no" src="https://open.spotify.com/embed/album/69i02S3KILQ083ExlYjZqg" style="border:0;height:100%;left:0;position:absolute;width:100%"></iframe></span></span><br>
<br>
<div class="bbCodeBlock bbCodeVfcHH HiddenContent">
<div class="attribution type">Hidden Content:</div>
<blockquote>You must either reply or click 'Like' to see the hidden information contained here.</blockquote>
</div></div>
<div class="messageTextEndMarker">&nbsp;</div>
</blockquote>
</article>]]></description>
                <author><![CDATA[WithLoveSNSD]]></author>
                </item>

                
                <item>
                <title><![CDATA[【DVD】DVD5 - Juan Gabriel - Palacio De Bellas Artes 1990 DVD]]></title>
                <link><![CDATA[https://sharemania.us/threads/juan-gabriel-palacio-de-bellas-artes-1990-dvd.241882/]]></link>
                <description><![CDATA[<article>
<blockquote class="messageText SelectQuoteContainer ugc baseHtml">
Juan Gabriel<br>
Palacio de Bellas Artes<br>
Mexico City, Mexico<br>
May 09, 1990<br>
<br>
Setlist<br>
Set 1<br>
No discutamos<br>
(Obertura)<br>
Mi fracaso<br>
(Obertura)<br>
Adiós amor<br>
(Obertura)<br>
Te vas<br>
(Obertura)<br>
Yo te perdono<br>
Yo no nací para amar<br>
No tengo dinero<br>
Me he quedado solo<br>
No se ha dado cuenta<br>
Buenos días Señor Sol<br>
Amor del alma<br>
Ya lo sé que tú te vas<br>
(additional verse)<br>
Se me olvidó otra vez<br>
Me nace del corazón<br>
No vale la pena<br>
Caray<br>
Inocente pobre amigo<br>
Te lo pido por favor<br>
Amor eterno<br>
<br>
Set 2<br>
Hasta que te conocí<br>
La negra Tomasa<br>
(Guillermo Rodríguez Fiffe cover)<br>
Dançando lambada<br>
(Kaoma cover)<br>
Caballo viejo<br>
(Simón Díaz cover)<br>
Bamboléo<br>
(Gipsy Kings cover)<br>
Debo hacerlo<br>
Adoro<br>
(Bronco cover)<br>
Cada quien su camino<br>
No me vuelvo a enamorar<br>
Quédate conmigo esta noche<br>
Tenías que ser tan cruel<br>
De mí enamórate<br>
Mi más bello error<br>
Querida<br>
Debo hacerlo<br>
La más querida<br>
Ya lo pasado pasado<br>
Viva México / Guadalajara<br>
Adiós amor, te vas<br>
<br>
<img src="https://i.imgur.com/9y7W7Mt.jpeg" class="bbCodeImage LbImage" alt="[​IMG]" data-url="https://i.imgur.com/9y7W7Mt.jpeg" style=""><br>
<img src="https://i.imgur.com/8MDoY9s.jpeg" class="bbCodeImage LbImage" alt="[​IMG]" data-url="https://i.imgur.com/8MDoY9s.jpeg" style=""><br>
<img src="https://i.imgur.com/DrJ9cPJ.jpeg" class="bbCodeImage LbImage" alt="[​IMG]" data-url="https://i.imgur.com/DrJ9cPJ.jpeg" style=""><br>
<img src="https://i.imgur.com/R9yMEIo.jpeg" class="bbCodeImage LbImage" alt="[​IMG]" data-url="https://i.imgur.com/R9yMEIo.jpeg" style=""><br>
<br>
<div class="ToggleTriggerAnchor bbCodeSpoilerContainer">
<button type="button" class="button bbCodeSpoilerButton ToggleTrigger Tooltip JsOnly" data-target="> .SpoilerTarget"><span>Spoiler: <span class="SpoilerTitle">Mediainfo</span></span></button>
<div class="SpoilerTarget bbCodeSpoilerText">Mediainfo<br>
General<br>
Complete name : juan gabriel bellas artes 1990 1er concierto.iso_Title1.mpg<br>
Format : MPEG-PS<br>
File size : 3.70 GiB<br>
Duration : 2 h 50 min<br>
Overall bit rate mode : Variable<br>
Overall bit rate : 3 111 kb/s<br>
Frame rate : 29.970 FPS<br>
<br>
Video<br>
ID : 224 (0xE0)<br>
Format : MPEG Video<br>
Format version : Version 2<br>
Format profile : Main@Main<br>
Format settings : CustomMatrix / BVOP<br>
Format settings, BVOP : Yes<br>
Format settings, Matrix : Custom<br>
Format settings, GOP : M=3, N=15<br>
Format settings, picture struc : Frame<br>
Duration : 2 h 50 min<br>
Bit rate mode : Variable<br>
Bit rate : 2 602 kb/s<br>
Maximum bit rate : 7 000 kb/s<br>
Width : 720 pixels<br>
Height : 480 pixels<br>
Display aspect ratio : 4:3<br>
Frame rate : 29.970 (30000/1001) FPS<br>
Standard : NTSC<br>
Color space : YUV<br>
Chroma subsampling : 4:2:0<br>
Bit depth : 8 bits<br>
Scan type : Interlaced<br>
Scan order : Top Field First<br>
Compression mode : Lossy<br>
Bits/(Pixel*Frame) : 0.251<br>
Time code of first frame : 00:01:03:11<br>
Time code source : Group of pictures header<br>
GOP, Open/Closed : Closed<br>
Stream size : 3.09 GiB (84%)<br>
<br>
Audio<br>
ID : 189 (0xBD)-128 (0x80)<br>
Format : AC-3<br>
Format/Info : Audio Coding 3<br>
Commercial name : Dolby Digital<br>
Muxing mode : DVD-Video<br>
Duration : 2 h 50 min<br>
Bit rate mode : Constant<br>
Bit rate : 448 kb/s<br>
Channel(s) : 6 channels<br>
Channel layout : L R C LFE Ls Rs<br>
Sampling rate : 48.0 kHz<br>
Frame rate : 31.250 FPS (1536 SPF)<br>
Compression mode : Lossy<br>
Stream size : 546 MiB (14%)<br>
Service kind : Complete Main<br>
<br>
Menu<br>
Format : DVD-Video</div>
</div><br>
<div class="bbCodeBlock bbCodeVfcHH HiddenContent">
<div class="attribution type">Hidden Content:</div>
<blockquote>You must reply before you can see the hidden data contained here.</blockquote>
</div>
<div class="messageTextEndMarker">&nbsp;</div>
</blockquote>
</article>]]></description>
                <author><![CDATA[Nero]]></author>
                </item>

                
                <item>
                <title><![CDATA[【Requests】[REQ AUD] - Chris Brown 11:11 (Deluxe) album]]></title>
                <link><![CDATA[https://sharemania.us/threads/chris-brown-11-11-deluxe-album.241881/]]></link>
                <description><![CDATA[<article>
<blockquote class="messageText SelectQuoteContainer ugc baseHtml">
<img src="https://ratedrnb.com/cdn/2024/04/chris-brown-11-11-deluxe-scaled.jpeg" class="bbCodeImage LbImage" alt="[​IMG]" data-url="https://ratedrnb.com/cdn/2024/04/chris-brown-11-11-deluxe-scaled.jpeg" style="">
<div class="messageTextEndMarker">&nbsp;</div>
</blockquote>
</article>]]></description>
                <author><![CDATA[wolverine]]></author>
                </item>

                </channel></rss>